<svg width="140" height="44" viewBox="0 0 140 44" fill="none" xmlns="http://www.w3.org/2000/svg">
<rect x="0.5" y="0.5" width="139" height="43" rx="21.5" stroke="#D5D7DA"/>
<path d="M39.59 23.51L46.42 27.49M46.41 16.51L39.59 20.49M52 15C52 16.6569 50.6569 18 49 18C47.3431 18 46 16.6569 46 15C46 13.3431 47.3431 12 49 12C50.6569 12 52 13.3431 52 15ZM40 22C40 23.6569 38.6569 25 37 25C35.3431 25 34 23.6569 34 22C34 20.3431 35.3431 19 37 19C38.6569 19 40 20.3431 40 22ZM52 29C52 30.6569 50.6569 32 49 32C47.3431 32 46 30.6569 46 29C46 27.3431 47.3431 26 49 26C50.6569 26 52 27.3431 52 29Z" stroke="#0A0D12" stroke-width="2.5" stroke-linecap="round" stroke-linejoin="round"/>
<path d="M72.12 27.16C71.6507 27.16 71.1813 27.1227 70.712 27.048C70.2427 26.984 69.8 26.8827 69.384 26.744C68.968 26.5947 68.5947 26.4133 68.264 26.2C68.072 26.072 67.9387 25.9173 67.864 25.736C67.7893 25.5547 67.7627 25.3787 67.784 25.208C67.816 25.0267 67.8853 24.872 67.992 24.744C68.1093 24.6053 68.2533 24.52 68.424 24.488C68.5947 24.456 68.7813 24.504 68.984 24.632C69.4533 24.9093 69.9493 25.112 70.472 25.24C70.9947 25.368 71.544 25.432 72.12 25.432C72.9627 25.432 73.576 25.2933 73.96 25.016C74.344 24.728 74.536 24.36 74.536 23.912C74.536 23.5387 74.3973 23.2453 74.12 23.032C73.8533 22.8187 73.3893 22.6427 72.728 22.504L70.968 22.136C69.9547 21.9227 69.1973 21.5653 68.696 21.064C68.2053 20.552 67.96 19.88 67.96 19.048C67.96 18.5253 68.0667 18.0507 68.28 17.624C68.4933 17.1973 68.792 16.8293 69.176 16.52C69.5707 16.2107 70.0347 15.976 70.568 15.816C71.112 15.6453 71.7093 15.56 72.36 15.56C73 15.56 73.608 15.64 74.184 15.8C74.76 15.96 75.2773 16.1947 75.736 16.504C75.9067 16.6213 76.0187 16.7653 76.072 16.936C76.136 17.1067 76.152 17.2773 76.12 17.448C76.088 17.608 76.0133 17.7467 75.896 17.864C75.7787 17.9813 75.6293 18.0507 75.448 18.072C75.2773 18.0933 75.08 18.04 74.856 17.912C74.4613 17.688 74.0613 17.528 73.656 17.432C73.2507 17.336 72.8133 17.288 72.344 17.288C71.8533 17.288 71.432 17.3573 71.08 17.496C70.728 17.6347 70.456 17.832 70.264 18.088C70.0827 18.3333 69.992 18.6267 69.992 18.968C69.992 19.352 70.12 19.6613 70.376 19.896C70.632 20.12 71.0693 20.296 71.688 20.424L73.432 20.792C74.488 21.016 75.272 21.368 75.784 21.848C76.3067 22.328 76.568 22.968 76.568 23.768C76.568 24.28 76.4613 24.744 76.248 25.16C76.0453 25.576 75.7467 25.9333 75.352 26.232C74.968 26.5307 74.504 26.76 73.96 26.92C73.416 27.08 72.8027 27.16 72.12 27.16ZM78.8058 27.128C78.4858 27.128 78.2404 27.0427 78.0698 26.872C77.8991 26.6907 77.8138 26.4347 77.8138 26.104V16.6C77.8138 16.2693 77.8991 16.0187 78.0698 15.848C78.2404 15.6773 78.4858 15.592 78.8058 15.592C79.1258 15.592 79.3711 15.6773 79.5418 15.848C79.7231 16.0187 79.8138 16.2693 79.8138 16.6V20.744H79.5898C79.8244 20.1787 80.1871 19.752 80.6778 19.464C81.1791 19.1653 81.7444 19.016 82.3738 19.016C83.0031 19.016 83.5204 19.1333 83.9258 19.368C84.3311 19.6027 84.6351 19.96 84.8378 20.44C85.0404 20.9093 85.1418 21.5067 85.1418 22.232V26.104C85.1418 26.4347 85.0564 26.6907 84.8858 26.872C84.7151 27.0427 84.4698 27.128 84.1498 27.128C83.8298 27.128 83.5791 27.0427 83.3978 26.872C83.2271 26.6907 83.1418 26.4347 83.1418 26.104V22.328C83.1418 21.72 83.0244 21.2773 82.7898 21C82.5658 20.7227 82.2138 20.584 81.7338 20.584C81.1471 20.584 80.6778 20.7707 80.3258 21.144C79.9844 21.5067 79.8138 21.992 79.8138 22.6V26.104C79.8138 26.7867 79.4778 27.128 78.8058 27.128ZM89.4291 27.16C88.8638 27.16 88.3571 27.0533 87.9091 26.84C87.4718 26.616 87.1251 26.3173 86.8691 25.944C86.6238 25.5707 86.5011 25.1493 86.5011 24.68C86.5011 24.104 86.6505 23.6507 86.9491 23.32C87.2478 22.9787 87.7331 22.7333 88.4051 22.584C89.0771 22.4347 89.9785 22.36 91.1091 22.36H91.9091V23.512H91.1251C90.4638 23.512 89.9358 23.544 89.5411 23.608C89.1465 23.672 88.8638 23.784 88.6931 23.944C88.5331 24.0933 88.4531 24.3067 88.4531 24.584C88.4531 24.936 88.5758 25.224 88.8211 25.448C89.0665 25.672 89.4078 25.784 89.8451 25.784C90.1971 25.784 90.5065 25.704 90.7731 25.544C91.0505 25.3733 91.2691 25.144 91.4291 24.856C91.5891 24.568 91.6691 24.2373 91.6691 23.864V22.024C91.6691 21.4907 91.5518 21.1067 91.3171 20.872C91.0825 20.6373 90.6878 20.52 90.1331 20.52C89.8238 20.52 89.4878 20.5573 89.1251 20.632C88.7731 20.7067 88.3998 20.8347 88.0051 21.016C87.8025 21.112 87.6211 21.1387 87.4611 21.096C87.3118 21.0533 87.1945 20.968 87.1091 20.84C87.0238 20.7013 86.9811 20.552 86.9811 20.392C86.9811 20.232 87.0238 20.0773 87.1091 19.928C87.1945 19.768 87.3385 19.6507 87.5411 19.576C88.0318 19.3733 88.5011 19.2293 88.9491 19.144C89.4078 19.0587 89.8238 19.016 90.1971 19.016C90.9651 19.016 91.5945 19.1333 92.0851 19.368C92.5865 19.6027 92.9598 19.96 93.2051 20.44C93.4505 20.9093 93.5731 21.5173 93.5731 22.264V26.104C93.5731 26.4347 93.4931 26.6907 93.3331 26.872C93.1731 27.0427 92.9438 27.128 92.6451 27.128C92.3465 27.128 92.1118 27.0427 91.9411 26.872C91.7811 26.6907 91.7011 26.4347 91.7011 26.104V25.336H91.8291C91.7545 25.7093 91.6051 26.0347 91.3811 26.312C91.1678 26.5787 90.8958 26.7867 90.5651 26.936C90.2345 27.0853 89.8558 27.16 89.4291 27.16ZM96.3071 27.128C95.9765 27.128 95.7205 27.0427 95.5391 26.872C95.3685 26.6907 95.2831 26.4347 95.2831 26.104V20.056C95.2831 19.7253 95.3685 19.4747 95.5391 19.304C95.7098 19.1333 95.9498 19.048 96.2591 19.048C96.5685 19.048 96.8085 19.1333 96.9791 19.304C97.1498 19.4747 97.2351 19.7253 97.2351 20.056V21.064H97.0751C97.2245 20.424 97.5178 19.9387 97.9551 19.608C98.3925 19.2773 98.9738 19.08 99.6991 19.016C99.9231 18.9947 100.099 19.0533 100.227 19.192C100.366 19.32 100.446 19.5227 100.467 19.8C100.488 20.0667 100.424 20.2853 100.275 20.456C100.136 20.616 99.9231 20.712 99.6351 20.744L99.2831 20.776C98.6325 20.84 98.1418 21.0427 97.8111 21.384C97.4805 21.7147 97.3151 22.184 97.3151 22.792V26.104C97.3151 26.4347 97.2298 26.6907 97.0591 26.872C96.8885 27.0427 96.6378 27.128 96.3071 27.128ZM104.96 27.16C104.074 27.16 103.312 26.9947 102.672 26.664C102.032 26.3333 101.536 25.864 101.184 25.256C100.842 24.648 100.672 23.928 100.672 23.096C100.672 22.2853 100.837 21.576 101.168 20.968C101.509 20.36 101.973 19.8853 102.56 19.544C103.157 19.192 103.834 19.016 104.592 19.016C105.146 19.016 105.642 19.1067 106.08 19.288C106.528 19.4693 106.906 19.7307 107.216 20.072C107.536 20.4133 107.776 20.8293 107.936 21.32C108.106 21.8 108.192 22.344 108.192 22.952C108.192 23.144 108.122 23.2933 107.984 23.4C107.856 23.496 107.669 23.544 107.424 23.544H102.288V22.392H106.784L106.528 22.632C106.528 22.1413 106.453 21.7307 106.304 21.4C106.165 21.0693 105.957 20.8187 105.68 20.648C105.413 20.4667 105.077 20.376 104.672 20.376C104.224 20.376 103.84 20.4827 103.52 20.696C103.21 20.8987 102.97 21.192 102.8 21.576C102.64 21.9493 102.56 22.3973 102.56 22.92V23.032C102.56 23.9067 102.762 24.5627 103.168 25C103.584 25.4267 104.192 25.64 104.992 25.64C105.269 25.64 105.578 25.608 105.92 25.544C106.272 25.4693 106.602 25.3467 106.912 25.176C107.136 25.048 107.333 24.9947 107.504 25.016C107.674 25.0267 107.808 25.0853 107.904 25.192C108.01 25.2987 108.074 25.432 108.096 25.592C108.117 25.7413 108.085 25.896 108 26.056C107.925 26.216 107.792 26.3547 107.6 26.472C107.226 26.7067 106.794 26.8827 106.304 27C105.824 27.1067 105.376 27.16 104.96 27.16Z" fill="#0A0D12"/>
</svg>
