<svg width="44" height="44" viewBox="0 0 44 44" fill="none" xmlns="http://www.w3.org/2000/svg">
<rect x="0.5" y="0.5" width="43" height="43" rx="21.5" stroke="#D5D7DA"/>
<path d="M19.1583 23.2582L24.85 26.5748M24.8417 17.4248L19.1583 20.7415M29.5 16.1665C29.5 17.5472 28.3807 18.6665 27 18.6665C25.6193 18.6665 24.5 17.5472 24.5 16.1665C24.5 14.7858 25.6193 13.6665 27 13.6665C28.3807 13.6665 29.5 14.7858 29.5 16.1665ZM19.5 21.9998C19.5 23.3805 18.3807 24.4998 17 24.4998C15.6193 24.4998 14.5 23.3805 14.5 21.9998C14.5 20.6191 15.6193 19.4998 17 19.4998C18.3807 19.4998 19.5 20.6191 19.5 21.9998ZM29.5 27.8332C29.5 29.2139 28.3807 30.3332 27 30.3332C25.6193 30.3332 24.5 29.2139 24.5 27.8332C24.5 26.4525 25.6193 25.3332 27 25.3332C28.3807 25.3332 29.5 26.4525 29.5 27.8332Z" stroke="#0A0D12" stroke-width="2" stroke-linecap="round" stroke-linejoin="round"/>
</svg>
